<svg width="40" height="40" viewBox="0 0 40 40" fill="none" xmlns="http://www.w3.org/2000/svg">
<path d="M36.0516 29.565C35.8299 29.1592 35.5025 28.8045 35.0909 28.5463L20.367 19.3069V18.0009C20.3668 17.9559 20.3883 17.9153 20.4205 17.8866C20.5522 17.8751 20.7265 17.8541 20.9316 17.8139C21.3516 17.7308 21.9035 17.5778 22.4578 17.2202C23.2707 16.6915 23.9445 15.9716 24.4171 15.1206C24.8894 14.2697 25.159 13.2858 25.1588 12.248C25.1593 10.615 24.4933 9.1258 23.423 8.05638C22.354 6.98607 20.8649 6.32104 19.2324 6.32104C18.0088 6.32104 16.8622 6.69438 15.9175 7.3336C14.9724 7.97268 14.2229 8.87528 13.7718 9.94041C13.5277 10.5174 13.7981 11.1834 14.3751 11.4276C14.9523 11.6715 15.6185 11.4018 15.8623 10.8248C16.1391 10.1699 16.6045 9.60915 17.1887 9.21468C17.7733 8.82034 18.4711 8.59083 19.2323 8.59083C20.2451 8.59083 21.1524 8.99811 21.8179 9.66217C22.4814 10.3271 22.8885 11.2345 22.8887 12.248C22.8885 12.8943 22.7235 13.4933 22.4324 14.0187C22.1412 14.5431 21.7229 14.9906 21.221 15.3166C21.0254 15.4471 20.7343 15.5427 20.4991 15.5867C20.382 15.6091 20.2804 15.6211 20.2142 15.6264C20.1807 15.6297 20.1565 15.6312 20.1439 15.6316H20.1372L19.9832 15.6335L19.8322 15.6785C18.8034 15.9831 18.0974 16.9277 18.0971 18.0009V19.3419L4.79612 28.6209L4.79638 28.62C4.03652 29.1501 3.60574 30.0091 3.60645 30.9003C3.60645 31.1784 3.64858 31.4601 3.73458 31.733C4.09857 32.8918 5.17183 33.6791 6.38565 33.6791H33.6139C34.8531 33.6791 35.9418 32.8593 36.2848 31.6684V31.6679C36.3573 31.4141 36.3933 31.1554 36.3933 30.9002C36.3933 30.4293 36.2736 29.9713 36.0516 29.565ZM34.1035 31.0417V31.0412C34.0409 31.2587 33.8408 31.4098 33.614 31.4098H6.38565C6.16312 31.4098 5.96633 31.2644 5.89993 31.0532C5.88341 31.0016 5.8763 30.9504 5.8763 30.9002C5.87675 30.7367 5.95468 30.5789 6.09402 30.4824H6.09454L19.2654 21.2952L33.8845 30.4685C33.9617 30.5173 34.0191 30.5804 34.0605 30.655C34.1016 30.7295 34.1238 30.8142 34.1238 30.9003C34.1238 30.9466 34.1171 30.993 34.1035 31.0417Z" fill="#B8F2FF"/>
</svg>
