<svg width="450" height="437" viewBox="0 0 450 437" fill="none" xmlns="http://www.w3.org/2000/svg">
<path fill-rule="evenodd" clip-rule="evenodd" d="M127.009 70.339L174.676 78.7802L217.954 55.959L256.214 85.6577H304.821L324.892 129.736L367.855 151.933L365.034 200.389L392.63 240.091L367.229 281.669L373.186 329.813L331.164 354.823L313.916 400.465L265.307 403.904L228.616 436.415L184.399 416.72L137.044 428.913L106.939 391.086L59.5838 379.832L50.8038 332.001L14.425 300.114L28.8513 253.534L11.6038 208.204L46.1 173.816L52.0575 125.673L98.4713 110.666L127.009 70.339Z" fill="#2A2941"/>
<path fill-rule="evenodd" clip-rule="evenodd" d="M151.784 130.361C167.15 124.422 183.144 121.608 199.451 121.921C215.759 122.233 231.752 125.985 246.805 132.55C261.859 139.115 275.03 148.806 286.319 160.686C297.609 172.565 306.39 186.633 312.035 201.638C325.52 231.65 326.46 266.038 314.857 296.987C303.254 327.937 279.734 352.946 249.941 366.701C234.575 372.641 218.581 375.455 202.274 375.142C185.966 374.83 169.972 371.078 154.92 364.513C139.866 357.948 126.695 348.257 115.406 336.69C104.116 324.811 95.335 311.055 89.69 295.737C76.205 265.726 75.2649 231.337 86.8674 200.388C98.1574 169.438 121.677 144.117 151.784 130.361Z" fill="#2A2941"/>
<path fill-rule="evenodd" clip-rule="evenodd" d="M377.891 140.679L0 300.114L33.2412 380.144L411.446 220.709L377.891 140.679Z" fill="#2A2941"/>
<path d="M74.9513 347.007L59.2713 353.573C58.33 354.198 57.3888 354.198 56.4488 354.51C55.5075 354.51 54.5663 354.51 53.6263 353.885C52.685 353.572 52.0575 352.947 51.4313 352.009C50.8038 351.072 50.49 350.447 50.1763 349.508L32.9288 308.868C32.3013 306.992 32.3013 305.117 32.9288 303.24C33.2413 302.303 33.8688 301.678 34.81 301.053C35.4375 300.427 36.3775 300.114 37.3188 299.802L54.5663 292.612C56.7625 291.674 58.9575 290.735 61.1525 290.423C63.0338 290.11 64.915 290.11 66.7975 290.423C68.365 290.735 69.9338 291.362 71.1875 291.987C72.4425 292.612 74.01 293.862 74.9513 294.8C76.205 296.05 76.8325 297.613 77.46 299.177C78.7138 301.678 79.0275 304.492 78.4 307.304C77.7738 310.118 76.5188 312.619 74.6375 314.495C77.7738 313.869 81.2225 314.495 84.045 316.058C86.8675 317.622 89.0625 320.122 90.3175 323.248C91.5713 326.062 92.1988 329.188 91.5713 332.314C91.2588 335.128 89.69 337.942 87.8088 340.129C86.24 341.693 84.6725 342.943 83.105 343.882L74.9513 347.007ZM64.2888 323.248L53.3125 327.938L59.8975 343.882L71.1875 339.192C78.4 336.378 80.5963 332.002 78.7138 326.687C78.4 325.437 77.7738 324.499 76.8325 323.56C75.8913 322.623 74.6375 321.998 73.3825 321.998C70.2463 321.373 67.1113 321.998 64.2888 323.248ZM44.5313 306.054L50.1763 320.122L59.8975 316.058C62.0938 315.433 63.975 314.183 65.5425 312.932C66.7975 311.682 67.425 310.118 67.7375 308.555C68.0513 307.304 68.0513 306.054 67.7375 304.804C67.425 303.553 66.7975 302.615 65.8563 301.99C64.915 301.365 63.975 300.739 62.72 300.739C59.5838 301.053 56.4488 301.678 53.6263 303.24L44.5313 306.054Z" fill="#2A2941"/>
<path d="M127.636 297.613L123.873 299.176L131.086 316.371C131.712 318.246 131.712 320.122 131.086 321.997C130.772 322.623 130.459 323.561 129.831 323.873C129.204 324.498 128.576 324.811 127.95 325.123C127.322 325.436 126.381 325.75 125.755 325.75C125.127 325.75 124.186 325.436 123.559 325.123C121.991 324.186 120.736 322.623 120.11 320.747L102.861 279.168C102.234 277.293 102.234 275.417 102.861 273.542C103.175 272.603 103.802 271.978 104.742 271.353C105.37 270.728 106.311 270.416 107.252 270.103L124.5 262.912C126.381 261.975 128.576 261.35 130.459 260.725C132.026 260.412 133.908 260.412 135.79 260.725C137.671 260.725 139.552 261.35 141.435 261.975C143.316 262.912 144.884 264.163 146.139 265.413C147.393 266.977 148.648 268.852 149.275 270.728C150.529 274.167 150.529 278.231 149.275 281.67C147.706 285.421 144.884 288.86 141.435 291.048C143.944 291.361 146.452 292.298 148.647 293.55C151.156 294.8 153.665 296.363 155.86 297.926C158.055 299.176 159.937 301.052 161.505 302.615C162.446 303.553 163.386 304.803 164.327 305.741C164.641 306.68 164.641 307.305 164.327 308.242C164.327 309.181 163.7 309.806 163.386 310.743C162.76 311.681 161.819 312.306 160.878 312.62C159.938 312.932 158.682 312.932 157.742 312.62C156.801 312.306 155.546 311.993 154.92 311.368C153.665 310.431 152.097 309.493 150.842 308.555L143.63 302.928C141.435 301.365 139.239 299.802 137.044 298.551C135.476 297.613 133.907 297.301 132.34 297.301C130.459 297.301 128.89 297.926 127.322 298.551L127.636 297.613ZM124.186 272.603L114.465 276.668L120.736 291.673L130.145 287.61C132.34 286.672 134.221 285.733 136.104 284.171C137.671 283.233 138.613 281.67 139.239 280.107C139.866 278.543 139.866 276.668 139.239 274.792C138.613 273.542 137.671 272.291 136.417 271.353C135.162 270.416 133.595 270.103 132.34 270.103C129.517 270.416 126.381 271.041 123.873 272.291H124.186V272.603Z" fill="#2A2941"/>
<path d="M223.913 276.98L218.581 271.353L197.57 280.419V288.234C197.884 290.423 197.884 292.611 197.57 294.8C197.256 295.425 196.943 296.05 196.629 296.363C196.001 296.988 195.689 297.3 195.061 297.3C194.434 297.613 193.806 297.613 192.866 297.613C192.239 297.613 191.298 297.613 190.67 297.3C190.044 296.988 189.416 296.675 188.789 296.363C188.161 295.738 187.848 295.425 187.535 294.8C187.221 293.861 187.221 293.236 187.535 292.299C187.535 291.36 187.535 290.11 187.535 288.548L186.28 247.906C186.28 246.656 186.28 245.405 186.28 243.53C186.28 242.28 186.28 240.716 186.28 239.466C186.594 238.215 186.908 237.278 187.848 236.34C188.475 235.089 189.73 234.464 190.984 233.839C192.239 233.526 193.806 233.526 195.061 233.839C196.315 233.839 197.256 234.464 198.198 235.089L201.02 237.278L204.155 241.029L232.066 270.103C233.634 271.665 234.889 273.229 236.143 275.418C236.456 276.043 236.456 276.668 236.456 277.293C236.456 277.918 236.456 278.544 236.143 279.169C235.829 279.794 235.516 280.419 234.889 281.044C234.261 281.67 233.634 281.983 233.006 282.295H230.498C229.871 282.608 229.244 282.608 228.616 282.295C227.675 281.67 227.049 281.044 226.108 280.419L223.913 276.98ZM196.943 270.728L212.623 264.163L195.375 245.093L196.943 270.728Z" fill="#2A2941"/>
<path d="M256.84 213.518L290.396 236.652L277.225 204.765C276.598 202.889 276.598 201.013 277.225 199.45C277.539 198.825 277.853 198.2 278.165 197.574C278.793 196.949 279.106 196.637 280.048 196.324C280.675 196.012 281.615 196.012 282.243 196.012C282.87 196.012 283.81 196.012 284.438 196.324C286.006 197.262 286.946 198.825 287.574 200.388L304.821 242.904C306.704 247.594 305.763 250.72 301.999 252.283H299.178C298.236 252.595 297.295 252.595 296.668 252.283L293.846 251.033L291.024 249.157L258.095 226.023L271.266 257.598C271.894 259.16 271.894 261.037 271.266 262.912C270.953 263.537 270.639 264.163 270.013 264.788C269.385 265.413 268.758 265.725 268.13 266.038C267.503 266.35 266.563 266.35 265.935 266.35C265.308 266.35 264.368 266.038 263.74 265.725C262.171 264.788 261.231 263.224 260.604 261.662L243.356 220.083C242.729 218.52 242.415 217.269 242.415 215.707C242.415 214.457 242.729 213.205 243.356 211.955C243.983 210.704 244.924 210.079 246.179 209.454C247.119 209.142 248.06 209.142 248.688 209.454C249.314 209.142 250.255 209.142 250.883 209.454C251.823 209.767 252.45 210.392 253.391 210.704L256.84 213.518Z" fill="#2A2941"/>
<path d="M320.502 180.068L333.986 174.442C337.122 173.19 340.259 172.253 343.395 171.628C346.217 171.315 349.354 171.628 352.176 172.565C356.252 174.129 359.702 176.629 362.839 180.068C365.974 183.508 368.17 186.947 369.424 191.323C370.679 194.137 371.619 197.263 372.246 200.389C372.56 203.203 372.56 206.015 372.246 208.517C371.932 211.33 371.305 213.832 370.365 216.332C369.424 218.208 368.482 219.772 367.229 221.334C365.974 222.897 364.406 224.148 362.525 225.398L356.252 228.524L342.767 234.464C341.2 235.089 339.631 235.402 338.064 235.402C336.809 235.089 335.869 234.464 335.241 233.527C334.3 232.275 333.674 231.025 333.046 229.462L315.797 189.759C315.171 187.884 315.171 186.008 315.797 184.133C316.425 183.194 317.052 182.257 317.992 181.632C318.62 180.694 319.561 180.068 320.502 180.068ZM328.342 186.947L343.395 223.523L351.235 220.084L355.311 218.208L358.134 216.332C359.075 215.394 359.702 214.457 360.33 213.519C361.27 210.705 361.897 207.267 361.584 204.14C361.27 201.014 360.33 197.888 359.075 195.074C357.507 191.01 354.999 186.947 351.862 184.133C349.667 182.257 346.845 181.319 344.022 181.632C340.886 181.944 338.064 182.882 335.241 184.133L328.342 186.947Z" fill="#2A2941"/>
<path fill-rule="evenodd" clip-rule="evenodd" d="M153.038 32.1996L199.138 40.0146L240.846 18.1309L277.851 46.5796H324.893L344.335 88.7833L386.045 110.041L383.223 156.308L409.879 194.448L385.418 234.463L391.063 280.418L350.608 304.803L333.359 348.57L286.319 351.696L251.823 382.957L209.173 364.513L163.386 376.08L134.535 339.503L88.75 328.875L80.2825 283.232L45.7863 252.908L59.8975 208.203L42.65 164.75L75.8913 131.612L81.85 85.3446L126.695 70.9646L153.038 32.1996Z" fill="black"/>
<path fill-rule="evenodd" clip-rule="evenodd" d="M155.86 17.1937L145.825 15.3188L116.346 57.5212L66.7976 73.1525L60.5251 124.735L23.2063 161.624L41.7088 209.455L26.0288 257.91L64.9163 292.299L74.3238 342.63L124.814 354.51L156.801 394.525L207.291 381.707L254.645 402.34L293.533 367.952L345.276 364.514L363.779 316.37L408.31 289.485L402.039 238.841L429.009 194.761L399.844 151.308L402.979 99.725L357.194 76.2788L335.869 29.6988H284.124L242.729 0L196.943 24.3838L155.86 17.1937ZM153.039 33.1375L199.138 40.9525L240.846 19.07L277.853 47.5175H324.893L344.335 89.7213L386.045 110.98L383.223 157.247L409.879 195.386L385.418 235.401L391.063 281.356L350.608 305.741L333.36 349.508L286.319 352.634L251.823 383.896L209.173 365.451L163.388 377.019L134.535 340.441L88.75 329.187L80.2826 283.545L45.7863 253.221L59.8988 208.516L42.65 165.062L75.8926 132.238L81.85 85.97L126.695 71.59L153.039 33.1375Z" fill="#2A2941"/>
<path fill-rule="evenodd" clip-rule="evenodd" d="M177.185 89.4091C199.451 78.7803 224.226 75.0278 248.686 78.4678C273.148 81.9066 295.728 92.8478 313.916 109.417C332.105 125.985 344.963 147.557 350.608 171.628C356.253 195.387 354.684 220.709 345.904 243.53C337.123 266.352 321.756 286.359 301.685 300.427C281.615 314.494 257.468 322.31 233.006 322.935C208.545 323.56 184.085 316.37 163.386 302.928C142.689 289.485 126.695 270.103 116.974 247.594C104.116 218.52 103.175 186.008 114.465 156.309C125.755 126.61 148.334 102.539 177.185 89.4091Z" fill="white"/>
<path fill-rule="evenodd" clip-rule="evenodd" d="M170.914 74.7152C144.885 84.0939 121.991 101.289 105.998 123.796C89.6901 146.305 80.5963 173.19 79.655 200.701C78.7138 228.524 86.2413 255.723 101.294 279.169C116.033 302.615 137.671 321.059 163.074 332.314C188.475 343.568 216.699 346.694 243.983 341.693C271.266 336.69 296.668 323.56 316.425 304.178C336.183 284.795 349.666 259.786 355.311 232.588C360.956 205.39 358.134 177.255 347.471 151.62C334.3 118.17 308.271 91.2839 275.343 76.9039C241.788 62.5239 204.469 61.5852 170.914 74.7152ZM177.185 89.4089C199.451 78.7802 224.226 75.0289 248.686 78.4676C273.148 81.9064 295.728 92.8477 313.916 109.416C332.105 125.985 344.649 147.869 350.608 171.628C356.566 195.386 354.685 220.709 345.904 243.53C337.123 266.351 321.756 286.359 301.686 300.426C281.615 314.494 257.468 322.31 233.006 322.935C208.233 323.248 184.085 316.37 163.388 302.928C142.689 289.485 126.695 270.103 116.974 247.594C104.116 218.52 103.175 186.008 114.465 156.309C125.755 126.61 148.334 102.851 177.185 89.4089Z" fill="#2A2941"/>
<path fill-rule="evenodd" clip-rule="evenodd" d="M396.08 99.4121L30.42 251.97L62.72 328.562L428.068 176.003L396.08 99.4121Z" fill="white"/>
<path fill-rule="evenodd" clip-rule="evenodd" d="M449.079 184.757L404.547 78.4658L9.40869 243.216L54.8799 349.507L449.079 184.757ZM396.08 98.7858L30.4199 251.345L62.7212 327.936L428.067 175.378L396.08 98.7858Z" fill="#2A2941"/>
<path d="M102.861 296.989L87.4951 303.24C86.5538 303.554 85.6138 303.867 84.6725 303.867C83.7325 303.867 82.7913 303.554 81.85 303.24C80.5963 303.24 79.3413 301.053 78.4013 298.864L62.7201 260.412C62.0938 258.537 62.0938 256.66 62.7201 254.785C62.7201 253.222 64.6026 252.284 66.7976 251.034L83.1051 244.469C85.3001 243.53 87.1813 242.905 89.3763 242.28C91.2588 241.968 93.1401 241.968 95.0213 242.28C96.5901 242.593 97.8438 243.218 99.0988 243.843C100.353 244.469 101.608 245.406 102.861 246.656C103.803 247.908 104.744 249.158 105.37 250.72C106.311 253.221 106.939 255.723 106.311 258.537C105.684 261.038 104.43 263.538 102.548 265.414C105.684 264.789 108.82 265.414 111.643 266.977C114.465 268.54 116.66 271.042 117.601 273.855C118.855 276.668 119.169 279.794 118.855 282.608C118.229 285.422 116.974 288.235 115.093 290.11C113.838 291.362 112.27 292.612 110.389 293.55C107.879 294.8 105.684 296.05 102.861 296.989ZM92.5126 274.168L81.85 278.544L88.1226 293.55L99.0988 289.173C105.684 286.359 108.193 282.295 106.311 277.294C105.998 276.043 105.37 275.105 104.43 274.168C103.489 273.229 102.548 272.917 101.294 272.604C98.1575 272.292 95.3351 272.917 92.5126 274.168ZM73.3826 256.973L79.0276 270.415L88.4363 266.664C90.3176 265.727 92.1988 264.789 94.0813 263.538C94.7075 262.913 95.0213 262.288 95.6488 261.663C95.9626 261.038 96.2763 260.099 96.2763 259.474C96.5901 258.224 96.5901 256.973 96.2763 255.723C95.0213 252.909 93.4538 251.659 91.5725 251.659C88.4363 251.659 85.6138 252.597 82.7913 253.847L73.3826 256.973Z" fill="#2A2941"/>
<path d="M153.665 249.781L150.216 251.032L157.115 268.226C157.429 269.164 157.743 270.101 157.743 271.04C157.743 271.977 157.429 272.915 157.115 273.854C156.801 274.479 156.488 275.104 155.86 275.729C155.234 276.354 154.606 276.666 153.979 276.98C153.351 277.292 152.725 277.605 151.784 277.605C151.156 277.605 150.216 277.292 149.589 276.98C148.02 276.041 146.766 274.479 146.139 272.602L128.891 232.9C128.264 231.025 128.264 229.149 128.891 227.272C129.831 225.71 131.4 224.46 132.968 223.834L150.216 216.956C152.098 216.019 153.979 215.394 156.174 214.769C157.743 214.456 159.624 214.456 161.191 214.769C163.074 214.769 164.955 215.394 166.523 216.019C168.091 216.644 169.659 217.895 171.228 219.145C172.481 220.707 173.423 222.271 174.363 223.834C175.618 227.272 175.618 231.025 174.363 234.464C173.423 234.15 172.481 233.837 171.541 233.837C170.6 233.837 169.659 234.151 168.719 234.776C167.778 235.401 167.15 236.026 166.836 236.964C166.21 237.902 166.209 238.84 166.209 239.777C166.209 240.716 166.523 241.654 166.836 242.591C167.464 243.529 168.091 244.155 168.719 244.78C169.345 245.405 170.6 245.717 171.541 245.717C172.481 245.717 173.423 245.717 174.363 245.092C176.871 246.342 179.068 247.906 181.576 249.469C183.458 250.72 185.339 252.282 186.908 253.845C187.848 254.784 188.789 255.721 189.416 256.971C189.73 257.597 189.73 258.535 189.416 259.16C189.103 260.097 188.789 261.036 188.161 261.661C187.534 262.286 186.908 262.911 185.966 263.224C185.025 263.536 183.771 263.536 182.83 263.224C181.89 262.911 180.949 262.599 180.008 261.974L176.245 259.16L169.031 253.845C167.15 252.282 164.955 250.72 162.76 249.469C161.191 248.844 159.624 248.219 158.056 248.219C156.488 248.219 154.606 248.531 153.351 249.156L153.665 249.781ZM150.529 225.397L141.121 229.461L147.08 243.841L156.174 239.777C158.369 239.152 160.251 237.902 162.133 236.651C163.388 235.714 164.328 234.464 164.955 232.9C165.583 231.337 165.583 229.461 164.955 227.899C164.328 226.647 163.7 225.397 162.446 224.772C161.191 224.146 159.938 223.521 158.369 223.834C155.548 223.834 153.038 224.46 150.529 225.397Z" fill="#2A2941"/>
<path d="M246.805 230.087L241.474 224.461L221.09 232.901V240.717C221.404 242.905 221.404 244.781 221.09 246.969C221.09 248.22 219.835 249.157 218.581 249.782C217.954 250.095 217.326 250.095 216.699 250.095C216.072 250.095 215.445 250.095 214.817 249.782C214.19 249.47 213.564 249.157 212.936 248.845C212.309 248.532 211.995 247.907 211.681 247.282C211.369 246.344 211.369 245.719 211.681 244.781C211.681 243.53 211.681 242.28 211.681 241.03L210.427 202.265V198.201C210.114 196.95 210.114 195.387 210.427 194.136C210.741 192.886 211.055 191.949 211.681 191.01C212.622 190.072 213.564 189.135 214.817 188.822C216.072 188.51 217.326 188.51 218.895 188.822C220.149 188.822 221.09 189.447 222.03 190.072C222.971 190.697 223.912 191.324 224.54 192.261L227.675 195.387L254.645 223.21C256.214 224.774 257.467 226.336 258.409 228.212C258.722 228.837 258.722 229.462 258.722 230.087C258.722 230.714 258.722 231.338 258.409 231.963C258.095 232.588 257.781 233.214 257.154 233.839C256.527 234.465 255.9 234.777 255.272 235.09C254.645 235.402 253.705 235.402 253.077 235.09C252.45 235.09 251.822 235.09 251.196 235.09L249 233.214L246.805 230.087ZM220.776 224.149L235.829 217.896L218.581 199.764L220.776 224.149Z" fill="#2A2941"/>
<path d="M279.106 169.126L311.407 191.635L298.55 160.998C297.922 159.435 297.922 157.559 298.55 155.996C298.864 155.371 299.177 154.745 299.49 154.12C300.117 153.495 300.431 153.183 301.059 152.87C301.686 152.558 302.313 152.558 303.254 152.558C303.881 152.558 304.821 152.558 305.449 152.87C307.017 153.808 307.957 155.371 308.585 156.934L325.832 197.574C327.715 201.951 326.774 205.078 323.324 206.64C322.384 206.953 321.442 206.953 320.501 206.64C319.561 206.953 318.62 206.953 317.993 206.64C317.053 206.328 316.111 206.015 315.484 205.39L312.975 203.514L279.42 181.631L292.277 211.955C292.905 213.518 292.905 215.394 292.277 216.956C291.964 217.583 291.65 218.208 291.336 218.833C290.71 219.458 290.396 219.77 289.769 220.083C289.141 220.395 288.515 220.708 287.574 220.708C286.946 220.708 286.005 220.395 285.379 220.083C283.81 219.145 282.87 217.895 282.243 216.019L264.68 176.004C264.054 174.753 263.74 173.19 263.426 171.94C263.426 170.689 263.74 169.439 264.367 168.501C264.994 167.563 266.249 166.625 267.19 166H269.699C270.325 165.688 271.266 165.688 271.894 166C272.834 166.313 273.461 166.938 274.402 167.25L279.106 169.126Z" fill="#2A2941"/>
<path d="M340.572 137.553L353.744 131.925C356.88 130.675 359.702 129.738 363.151 129.111C365.974 128.799 368.796 129.111 371.305 130.05C375.382 131.613 378.832 133.801 381.967 136.615C385.104 139.741 387.299 143.18 388.554 147.244C389.807 150.058 390.749 152.871 391.376 155.998C391.69 158.498 391.69 161.311 391.376 163.813C391.062 166.314 390.435 168.815 389.495 171.003C388.554 172.879 387.612 174.441 386.359 175.693C385.104 177.255 383.536 178.505 381.967 179.444L376.01 182.57L362.839 188.196C361.584 188.823 360.016 189.135 358.447 189.135C357.82 189.135 357.194 188.823 356.88 188.51C356.252 188.196 355.939 187.884 355.625 187.259C354.685 186.009 354.057 184.758 353.43 183.508L337.436 145.368C336.809 143.493 336.809 141.616 337.436 139.741C337.75 138.803 338.377 138.178 339.004 137.553C339.631 136.928 340.572 136.615 341.514 136.303L340.572 137.553ZM347.785 144.43L362.525 178.819L370.051 175.693L374.127 173.816C375.069 173.504 376.01 172.879 376.95 171.94C377.891 171.003 378.519 170.065 378.832 169.128C379.772 166.314 380.4 163.5 380.086 160.374C379.772 157.248 378.832 154.434 377.577 151.933C376.01 147.869 373.814 144.43 370.679 141.304C368.482 139.429 365.974 138.803 363.151 138.803C360.329 139.115 357.507 140.054 354.685 140.991L348.099 143.805V144.43H347.785Z" fill="#2A2941"/>
</svg>
